<svg width="24" height="24" viewBox="0 0 24 24" fill="none" xmlns="http://www.w3.org/2000/svg">
<path d="M6.80625 9.23906L7.29 9.53906C7.51125 9.67969 7.755 9.75 8.00625 9.75C8.8875 9.75 9.60375 8.85469 9.60375 7.75312V6.75C9.60375 5.09531 8.5275 3.75 7.20375 3.75H4.8C3.47625 3.75 2.4 5.09531 2.4 6.75V7.75312C2.4 8.85469 3.11625 9.75 3.9975 9.75C4.245 9.75 4.48875 9.67969 4.71375 9.53906L5.1975 9.23906L5.5125 9.04219L5.06625 8.67188C4.8975 8.53125 4.8 8.29687 4.8 8.04844V7.875C4.8 7.25156 5.20125 6.75 5.7 6.75H6.3C6.79875 6.75 7.2 7.25156 7.2 7.875V8.04844C7.2 8.29687 7.09875 8.53125 6.93375 8.67188L6.49125 9.04219L6.80625 9.23906ZM6.48375 11.5547L6 11.25L5.51625 11.55C5.04375 11.8453 4.5225 12 3.9975 12C3.8625 12 3.73125 11.9906 3.6 11.9719V12C3.6 13.6547 4.67625 15 6 15H8.4C9.06375 15 9.6 15.6703 9.6 16.5C9.6 17.3297 9.06375 18 8.4 18H14.4V15.75V15C14.4 13.8891 14.8838 12.9188 15.6 12.4031C15.9525 12.15 16.3613 12 16.8 12V11.25C16.8 10.0078 17.6063 9 18.6 9C18.93 9 19.2 9.3375 19.2 9.75V11.25V12V14.25C19.2 14.6625 19.47 15 19.8 15C20.13 15 20.4 14.6625 20.4 14.25V9.57656C20.4 7.31719 19.245 5.31094 17.5275 4.59375L17.2088 4.4625C16.9088 4.33594 16.7363 3.94219 16.8188 3.55781C16.9013 3.17344 17.205 2.93906 17.5163 3.01406L18.2625 3.20156C21.6 4.03594 24 7.69687 24 11.9484V12C24 17.7984 20.2388 22.5 15.6 22.5H15.5588H9.6H9.5775C4.95 22.5 1.2 17.8125 1.2 12.0281V12V10.1625C0.82125 9.47813 0.6 8.64844 0.6 7.75312V6.75V6.68438C0.25125 6.52969 0 6.11719 0 5.625C0 5.00156 0.40125 4.5 0.9 4.5H1.005C1.68 2.72813 3.12375 1.5 4.8 1.5H7.2C8.87625 1.5 10.32 2.72813 10.995 4.5H11.1C11.5988 4.5 12 5.00156 12 5.625C12 6.11719 11.7488 6.52969 11.4 6.68438V6.75V7.75312C11.4 7.81875 11.4 7.88437 11.3963 7.95469C11.8463 7.66406 12.36 7.50469 12.9 7.50469H13.2C13.8638 7.50469 14.4 8.175 14.4 9.00469C14.4 9.83438 13.8638 10.5047 13.2 10.5047H12.9C12.4013 10.5047 12 11.0063 12 11.6297V12.0047H14.115C13.545 12.8016 13.2 13.8516 13.2 15.0047H12C10.4138 15.0047 9.0675 13.7203 8.5875 11.9438C8.39625 11.9859 8.20125 12.0047 8.0025 12.0047C7.47375 12.0047 6.95625 11.85 6.48375 11.5547ZM3.6 6C3.75913 6 3.91174 6.07902 4.02426 6.21967C4.13679 6.36032 4.2 6.55109 4.2 6.75C4.2 6.94891 4.13679 7.13968 4.02426 7.28033C3.91174 7.42098 3.75913 7.5 3.6 7.5C3.44087 7.5 3.28826 7.42098 3.17574 7.28033C3.06321 7.13968 3 6.94891 3 6.75C3 6.55109 3.06321 6.36032 3.17574 6.21967C3.28826 6.07902 3.44087 6 3.6 6ZM7.8 6.75C7.8 6.55109 7.86321 6.36032 7.97574 6.21967C8.08826 6.07902 8.24087 6 8.4 6C8.55913 6 8.71174 6.07902 8.82426 6.21967C8.93679 6.36032 9 6.55109 9 6.75C9 6.94891 8.93679 7.13968 8.82426 7.28033C8.71174 7.42098 8.55913 7.5 8.4 7.5C8.24087 7.5 8.08826 7.42098 7.97574 7.28033C7.86321 7.13968 7.8 6.94891 7.8 6.75Z" fill="#D59509"/>
</svg>
